<svg xmlns="http://www.w3.org/2000/svg" width="140" height="92" viewBox="0 0 70 46"><defs><linearGradient id="gtsva" x1="70.03" x2="55.11" y1="30.68" y2="46.04" gradientUnits="userSpaceOnUse"><stop offset="0" stop-color="#00c6fb"/><stop offset="1" stop-color="#005bea"/></linearGradient><linearGradient id="gtsvb" x1="66.5" x2="47.96" y1="12.41" y2="31.92" gradientUnits="userSpaceOnUse"><stop offset="0" stop-color="#00c6fb"/><stop offset="1" stop-color="#005bea"/></linearGradient><linearGradient id="gtsvc" x1="39.42" x2="33.29" y1="5.3" y2="13.98" gradientUnits="userSpaceOnUse"><stop offset="0" stop-color="#00c6fb"/><stop offset="1" stop-color="#005bea"/></linearGradient><linearGradient id="gtsvd" x1="51.6" x2="43.91" y1="7.61" y2="18.82" gradientUnits="userSpaceOnUse"><stop offset="0" stop-color="#00c6fb"/><stop offset="1" stop-color="#005bea"/></linearGradient><linearGradient id="gtsve" x1="30.85" x2="13.59" y1="5.52" y2="17.02" gradientUnits="userSpaceOnUse"><stop offset="0" stop-color="#00c6fb"/><stop offset="1" stop-color="#005bea"/></linearGradient><linearGradient id="gtsvf" x1="14.52" x2="1.72" y1="14.39" y2="30.22" gradientUnits="userSpaceOnUse"><stop offset="0" stop-color="#00c6fb"/><stop offset="1" stop-color="#005bea"/></linearGradient><linearGradient id="gtsvg" x1="3.93" x2="0" y1="32.04" y2="46.05" gradientUnits="userSpaceOnUse"><stop offset="0" stop-color="#00c6fb"/><stop offset="1" stop-color="#005bea"/></linearGradient><linearGradient id="gtsvh" x1="45.84" x2="25.37" y1="-.01" y2="45.72" gradientUnits="userSpaceOnUse"><stop offset="0" stop-color="#00c6fb"/><stop offset="1" stop-color="#005bea"/></linearGradient></defs><g><g><g/><g><g><g><path fill="url(#gtsva)" d="M69.995 42.619l-.016-.459-.017-.461-.004-.116-.003-.058v-.015l-.002-.13v-.005l-.002-.024-.015-.193-.06-.77-.015-.196-.023-.252-.048-.504-.049-.501-.025-.25-.03-.23c-.085-.606-.16-1.203-.267-1.777-.05-.287-.097-.57-.15-.845l-.167-.804c-.103-.523-.233-1.011-.342-1.463l-.083-.33-.087-.315-.164-.579c-.052-.181-.098-.351-.146-.507l-.137-.428c-.06-.19-.112-.35-.153-.475a.363.363 0 0 0-.445-.238L55.71 34.067a.363.363 0 0 0-.257.415l.043.236.056.294c.02.107.035.225.054.35.02.124.04.256.06.396.011.07.023.14.033.214l.026.227c.033.308.082.639.104.993l.045.542c.011.186.017.376.027.568.025.384.02.784.028 1.188l.002.15-.006.133-.009.267-.007.266-.003.133-.008.192c-.01.258-.022.516-.033.773l-.008.193-.001.024v.006l-.002-.118v.01l-.004.037-.007.076-.028.303-.026.299-.035.295c-.025.195-.04.389-.072.577l-.08.555-.092.528c-.027.172-.063.337-.095.497-.034.16-.06.315-.095.462a737.252 737.252 0 0 1-.143.616l-.043.157-.024.09h14.474a.362.362 0 0 0 .363-.347v-.003l.038-.83.016-.864c.008-.294 0-.592-.001-.894l-.005-.454z"/></g><g><path fill="url(#gtsvb)" d="M66.23 27.433a.363.363 0 0 0 .193-.492 216.051 216.051 0 0 0-.303-.64l-.25-.509-.288-.577c-.05-.106-.101-.193-.154-.292l-.16-.298c-.111-.202-.224-.413-.345-.63a1662.139 1662.139 0 0 1-.59-1.008l-.217-.348-.45-.715c-.323-.476-.644-.973-1.002-1.456l-.265-.367-.134-.184-.139-.18-.558-.724c-.19-.238-.386-.472-.578-.706-.098-.116-.192-.235-.291-.348l-.298-.34-.295-.335a9.897 9.897 0 0 0-.298-.328l-.593-.633c-.196-.207-.398-.401-.59-.596-.194-.193-.382-.383-.575-.56l-.554-.518c-.178-.168-.36-.32-.53-.472l-.49-.429-.454-.373-.399-.328c-.123-.1-.241-.188-.345-.27l-.382-.292a.363.363 0 0 0-.5.057l-6.353 7.689a.363.363 0 0 0 .024.49l.184.18c.066.067.142.137.22.22l.25.265.286.3.306.344c.105.121.22.242.33.376l.341.41c.12.138.234.289.352.44.116.153.241.304.358.466l.358.49c.062.082.12.167.177.253l.176.259.177.259c.06.087.113.178.17.266.113.18.229.356.34.536.106.183.214.365.321.546l.08.136.076.138.15.275c.206.36.38.732.561 1.08l.246.527.119.255.107.253.207.482.18.457.083.214c.026.069.058.142.076.2l.116.338.104.296c.042.126.08.242.116.346l.102.309c.067.198.286.3.48.221z"/></g><g><path fill="url(#gtsvc)" d="M33.88 13.693l.32.044.372.065.424.073c.13.021.263.052.403.081l4.009-8.2-.59-.091c-.132-.02-.262-.043-.392-.059l-.384-.046-.736-.088-.69-.059c-.22-.017-.432-.04-.633-.049l-.573-.028-.502-.024-.427-.006-.458-.006a.363.363 0 0 0-.367.346l-.366 7.632a.363.363 0 0 0 .314.377l.277.038z"/></g><g><path fill="url(#gtsvd)" d="M44.655 17.903l.306.222.269.193c.036.025.095.07.144.106l.143.107.26.194a.363.363 0 0 0 .52-.092l5.234-7.972a.363.363 0 0 0-.122-.515l-.282-.161-.154-.09-.186-.104-.482-.265-.548-.3-.58-.29c-.202-.098-.409-.208-.63-.308l-.683-.313c-.233-.11-.48-.21-.729-.315-.25-.103-.502-.215-.766-.314l-.201-.076-2.258 9.8c.125.078.242.161.358.236l.387.257z"/></g><g><path fill="url(#gtsve)" d="M26.849 13.655c.1-.013.2-.03.3-.04a234.838 234.838 0 0 0 .854-.088l.526-.036.247-.017c.08-.005.161-.012.23-.012l.404-.01.354-.012.37-.002.325-.002a.363.363 0 0 0 .36-.387l-.471-7.19a.363.363 0 0 0-.408-.336l-.322.04-.375.048-.522.078-.592.09c-.107.015-.205.035-.308.054l-.315.06-.67.13-.71.162-.37.085c-.124.029-.25.064-.376.097l-.774.207-.793.239c-.133.04-.268.08-.402.124l-.403.137-.406.14a9.006 9.006 0 0 0-.405.145l-.808.308c-.268.105-.532.221-.797.332-.132.056-.264.11-.394.168l-.387.178c-.129.06-.256.12-.384.178-.127.059-.253.117-.376.18l-.731.37c-.24.12-.469.253-.696.375-.226.124-.449.243-.658.371l-.615.365c-.2.116-.384.241-.565.355l-.515.33-.456.313-.399.275c-.123.085-.232.169-.333.242l-.346.255a.363.363 0 0 0-.084.497l2.985 4.389a.363.363 0 0 0 .479.112l.268-.151c.089-.05.185-.108.294-.164l.352-.184.399-.208.45-.216c.157-.073.317-.157.49-.23.17-.076.348-.153.53-.233.18-.083.37-.156.563-.233.194-.075.388-.16.592-.232l.617-.222c.103-.04.21-.073.316-.107l.32-.103.323-.104c.109-.033.219-.063.328-.094.22-.061.438-.128.659-.185l.662-.164c.11-.029.22-.052.331-.074l.33-.07.326-.07.326-.057.637-.11.619-.086z"/></g><g><path fill="url(#gtsvf)" d="M6.495 19.33l-.236.333-.237.336c-.078.112-.152.229-.23.344-.15.23-.305.46-.454.694l-.433.706-.108.176-.102.179-.203.355c-.276.468-.515.947-.758 1.401l-.334.683-.16.33-.148.328-.281.626-.245.593c-.077.19-.155.371-.222.546a675.367 675.367 0 0 1-.349.934l-.128.375-.128.38a.363.363 0 0 0 .215.456l2.778 1.065a.363.363 0 0 0 .458-.182l.144-.302.153-.318.191-.369.217-.418c.077-.147.166-.298.254-.457l.277-.494.314-.52.163-.27.175-.271.362-.56c.262-.37.517-.759.806-1.135l.212-.285.107-.144.111-.14.447-.563c.152-.185.31-.366.463-.548.078-.09.152-.182.232-.27l.237-.263.236-.26c.077-.087.155-.172.236-.254l.473-.49c.155-.16.316-.308.469-.459.154-.15.302-.296.455-.432l.44-.399c.14-.13.285-.246.418-.362l.387-.329.342-.271.3-.238c.042-.036.1-.078.148-.114l.143-.108.259-.196a.363.363 0 0 0 .057-.525l-3.164-3.706a.363.363 0 0 0-.528-.027l-.234.226-.128.124c-.046.044-.09.084-.146.142l-.351.355-.398.403c-.13.14-.266.289-.41.443-.14.156-.292.313-.439.485l-.457.53c-.159.18-.312.372-.47.568-.157.197-.323.393-.48.601l-.48.634c-.082.106-.16.216-.238.327z"/></g><g><path fill="url(#gtsvg)" d="M.748 32.33a729.192 729.192 0 0 1-.139.686c-.027.136-.053.297-.082.462l-.09.529c-.016.093-.034.189-.048.285l-.04.295c-.052.402-.12.834-.16 1.296l-.07.708c-.02.242-.033.49-.05.74-.04.503-.047 1.023-.064 1.55L0 39.079v.198c.002.133.002.266.003.4l.003.4v.2l.008.2.033.798.008.2.003.063.003.048.007.096.028.382c.01.126.02.253.028.378l.038.391.038.387.02.19.023.187.092.727.107.693c.033.226.074.444.113.654l.01.05a.363.363 0 0 0 .356.298h.98c.209 0 .375-.176.362-.385a25.017 25.017 0 0 0-.01-.169c-.012-.203-.027-.412-.032-.629l-.022-.663a3000.15 3000.15 0 0 1-.005-.87l.004-.176.008-.355.008-.358.017-.38.018-.381.005-.096.002-.048v-.006.009l.002-.012.001-.023.015-.186.06-.746.015-.186.021-.186.043-.37.042-.369.021-.183.028-.182c.074-.484.138-.96.23-1.416.044-.229.083-.453.128-.672l.142-.639c.086-.415.197-.802.288-1.16l.068-.262c.023-.085.049-.164.072-.243l.133-.447c.043-.141.078-.267.12-.394l.117-.355.102-.309a.363.363 0 0 0-.251-.465l-2.455-.655a.363.363 0 0 0-.45.279z"/></g><g><path fill="url(#gtsvh)" d="M25.946 37.497l11.286-23.086 4.049-8.28L44.025.516a.89.89 0 0 1 .817-.527c.544 0 1.085.464.928 1.145L44.422 6.99l-2.177 9.448-5.716 24.81a5.65 5.65 0 1 1-10.583-3.75zm2.512 2.339a2.77 2.77 0 1 0 5.54 0 2.77 2.77 0 0 0-5.54 0z"/></g></g></g></g></g></svg>